<svg width="52" height="47" viewBox="0 0 52 47" fill="none" xmlns="http://www.w3.org/2000/svg">
<g clip-path="url(#clip0_483_594)">
<path d="M15.5297 14.1372C15.1724 10.8051 15.7496 8.43784 17.1127 7.63566C17.481 7.41689 17.9262 7.3103 18.4319 7.3103C19.7675 7.3103 21.5429 8.08443 23.4227 9.48684C23.4502 9.50928 23.4777 9.53172 23.5107 9.55415C22.4169 10.6761 21.345 11.9382 20.3227 13.307C18.6518 13.5258 17.0468 13.8455 15.5462 14.2494C15.5352 14.2101 15.5352 14.1765 15.5297 14.1372Z" fill="#1D1C1C"/>
<path d="M17.1325 28.688C17.3084 29.0021 17.4953 29.3219 17.6877 29.6416C17.171 29.5238 16.6653 29.3948 16.1706 29.2602C16.3026 28.7553 16.4455 28.2448 16.6049 27.7288C16.7808 28.0485 16.9566 28.3739 17.1325 28.688Z" fill="#1D1C1C"/>
<path d="M34.9865 39.2405C33.6233 40.0426 31.3258 39.3695 28.6764 37.3893C28.649 37.3668 28.6215 37.3444 28.594 37.3276C29.6878 36.2057 30.7596 34.9435 31.782 33.5747C33.4529 33.356 35.0579 33.0362 36.5585 32.6323C36.564 32.666 36.564 32.7052 36.5695 32.7389C36.9267 36.0654 36.3496 38.4383 34.9865 39.2405Z" fill="#1D1C1C"/>
<path d="M29.9511 16.5384C30.6876 17.6042 31.3967 18.7318 32.0563 19.8986C32.7104 21.0598 33.315 22.249 33.8536 23.4382C33.315 24.6275 32.7104 25.8167 32.0563 26.9779C31.4022 28.1391 30.6931 29.2666 29.9511 30.3381C27.4007 30.5793 24.6964 30.5793 22.146 30.3381C21.4095 29.2723 20.7004 28.1447 20.0409 26.9779C19.3868 25.8167 18.7822 24.6275 18.2435 23.4382C18.7822 22.249 19.3868 21.0598 20.0409 19.8986C20.6949 18.7374 21.404 17.6098 22.146 16.5384C24.7019 16.3028 27.3952 16.3028 29.9511 16.5384Z" fill="#1D1C1C"/>
<path d="M17.6888 17.2344C17.502 17.5485 17.3151 17.8683 17.1337 18.188C16.9578 18.4965 16.7819 18.8219 16.6005 19.1529C16.4411 18.6368 16.2927 18.1263 16.1663 17.6158C16.661 17.4812 17.1722 17.3522 17.6888 17.2344Z" fill="#1D1C1C"/>
<path d="M34.4087 17.2336C34.9254 17.3514 35.4366 17.4805 35.9258 17.6151C35.7939 18.12 35.651 18.6304 35.4916 19.1465C35.3157 18.8212 35.1398 18.4958 34.9639 18.1817C34.7825 17.8731 34.5956 17.5534 34.4087 17.2336Z" fill="#1D1C1C"/>
<path d="M26.0485 33.9393C26.4002 33.9393 26.763 33.9337 27.1313 33.9281C26.774 34.3264 26.4112 34.7134 26.0485 35.0781C25.6857 34.7134 25.3229 34.3264 24.9657 33.9281C25.3339 33.9393 25.6967 33.9393 26.0485 33.9393Z" fill="#1D1C1C"/>
<path d="M26.0489 12.9356C25.6971 12.9356 25.3343 12.9412 24.9661 12.9468C25.3234 12.5486 25.6861 12.1615 26.0489 11.7969C26.4117 12.1615 26.7744 12.5486 27.1317 12.9468C26.7634 12.9412 26.4007 12.9356 26.0489 12.9356Z" fill="#1D1C1C"/>
<path d="M12.8947 28.0876C9.88812 26.7357 8.1677 25.0416 8.1677 23.4372C8.1677 21.8328 9.88812 20.1387 12.8947 18.7868C12.9277 18.77 12.9607 18.7588 12.9937 18.7419C13.4004 20.2734 13.9336 21.8497 14.5822 23.4372C13.9336 25.0247 13.4004 26.601 12.9937 28.1325C12.9607 28.1156 12.9277 28.1044 12.8947 28.0876Z" fill="#1D1C1C"/>
<path d="M1.55662 23.4378C1.55662 21.0986 2.44705 18.8323 4.13449 16.8914C4.13998 16.8858 4.13998 16.8858 4.14548 16.8802C5.29975 15.5563 6.82779 14.3783 8.68012 13.3742C8.77356 13.3237 8.82852 13.2227 8.82852 13.1161C8.75157 10.9732 8.99342 9.03791 9.53757 7.35502C10.3401 4.88676 11.8131 2.96266 13.8029 1.79025C15.7926 0.617836 18.1671 0.275649 20.6625 0.802954C22.361 1.16197 24.1254 1.91927 25.9062 3.05803C25.9942 3.11412 26.1096 3.11412 26.1976 3.05803C27.9784 1.91927 29.7428 1.16197 31.4412 0.802955C33.9367 0.27565 36.3057 0.617838 38.3009 1.79025C40.2907 2.96266 41.7692 4.88677 42.5662 7.35503C43.1104 9.03231 43.3522 10.9732 43.2753 13.1161C43.2698 13.2227 43.3302 13.3237 43.4237 13.3742C45.276 14.3783 46.804 15.5563 47.9583 16.8802C49.6512 18.8211 50.5472 21.0874 50.5472 23.4378C50.5472 25.7827 49.6512 28.049 47.9583 29.9955C46.804 31.3194 45.276 32.4974 43.4237 33.5015C43.3302 33.552 43.2753 33.653 43.2753 33.7596C43.3522 35.9024 43.1104 37.8378 42.5662 39.5206C41.7637 41.9889 40.2907 43.913 38.3009 45.0854C36.9158 45.9044 35.3658 46.3139 33.6893 46.3139C31.3038 46.3139 28.7864 45.4725 26.1976 43.8176C26.1536 43.7896 26.1041 43.7727 26.0491 43.7727C25.9942 43.7727 25.9502 43.7896 25.9007 43.8176C23.3119 45.4725 20.7945 46.3139 18.409 46.3139C16.738 46.3139 15.188 45.8988 13.7974 45.0854C11.8076 43.913 10.3291 41.9889 9.53208 39.5206C8.98792 37.8434 8.74607 35.9024 8.82302 33.7595C8.82852 33.653 8.76806 33.552 8.67462 33.5015C6.82229 32.4974 5.29425 31.3138 4.13998 29.9955C2.45255 28.0489 1.55662 25.7827 1.55662 23.4378ZM11.5438 31.2184C11.7802 31.325 12.033 31.4316 12.2968 31.5381C12.2584 31.8242 12.2254 32.0879 12.1924 32.3459C12.1924 32.3515 12.1924 32.3571 12.1924 32.3627C11.6812 37.1758 12.83 40.665 15.4354 42.202C16.3203 42.7237 17.3207 42.9874 18.4145 42.9874C20.5031 42.9874 22.9216 42.0057 25.4061 40.1489C25.6149 39.9919 25.8348 39.8236 26.0546 39.6441C26.28 39.8236 26.4944 39.9919 26.7032 40.1489C29.1877 42.0057 31.6061 42.9874 33.6948 42.9874C34.7886 42.9874 35.789 42.7237 36.6739 42.202C39.2793 40.665 40.4281 37.1758 39.9114 32.3628C39.8839 32.0991 39.8509 31.8298 39.807 31.5381C40.0708 31.4316 40.3181 31.325 40.56 31.2184C44.8967 29.2662 47.2877 26.5007 47.2877 23.4378C47.2877 20.3694 44.8967 17.6038 40.56 15.6573C40.3236 15.5507 40.0708 15.4441 39.807 15.3375C39.8509 15.0458 39.8839 14.7766 39.9114 14.5129C40.4226 9.69985 39.2738 6.21066 36.6684 4.6736C34.0631 3.13656 30.5233 3.87142 26.6977 6.72675C26.4889 6.88382 26.269 7.0521 26.0491 7.23161C25.8238 7.0521 25.6094 6.88382 25.4006 6.72675C21.575 3.86581 18.0352 3.13656 15.4299 4.6736C15.4244 4.67921 15.4189 4.67921 15.4134 4.68482C12.819 6.22188 11.6757 9.71107 12.1869 14.5129C12.2144 14.7766 12.2474 15.0458 12.2913 15.3375C12.033 15.4441 11.7912 15.5451 11.5603 15.6517C11.5548 15.6517 11.5438 15.6573 11.5383 15.6629C7.20705 17.6038 4.81606 20.3694 4.81606 23.4378C4.81606 26.5063 7.20704 29.2718 11.5438 31.2184Z" fill="#1D1C1C"/>
<path d="M28.6747 9.48623C30.5545 8.08382 32.3244 7.30969 33.6655 7.30969C34.1712 7.30969 34.6164 7.42188 34.9847 7.63505C36.3478 8.43723 36.925 10.8101 36.5677 14.1366C36.5677 14.1422 36.5677 14.1478 36.5677 14.159C36.5622 14.1871 36.5622 14.2208 36.5567 14.2488C35.0561 13.8449 33.4567 13.5252 31.7802 13.3064C30.7579 11.9376 29.686 10.6755 28.5922 9.55354C28.6197 9.5311 28.6472 9.50867 28.6747 9.48623Z" fill="#1D1C1C"/>
<path d="M23.5026 37.3217C23.4751 37.3442 23.4476 37.3666 23.4146 37.389C20.7653 39.3692 18.4677 40.0424 17.1046 39.2402C15.7415 38.438 15.1643 36.0652 15.5216 32.7387C15.5271 32.705 15.5271 32.6657 15.5326 32.6265C17.0331 33.0304 18.6326 33.3501 20.3091 33.5689C21.3369 34.9432 22.4088 36.1998 23.5026 37.3217Z" fill="#1D1C1C"/>
<path d="M43.928 23.4382C43.928 25.0425 42.2076 26.7366 39.201 28.0886C39.168 28.1054 39.135 28.1166 39.102 28.1334C38.6953 26.602 38.1621 25.0257 37.5135 23.4382C38.1621 21.8507 38.6953 20.2743 39.102 18.7429C39.135 18.7597 39.168 18.771 39.201 18.7878C42.2021 20.1397 43.928 21.8338 43.928 23.4382Z" fill="#1D1C1C"/>
<path d="M34.4075 29.6421C34.5943 29.328 34.7812 29.0082 34.9626 28.6885C35.1385 28.38 35.3144 28.0546 35.4903 27.7236C35.6497 28.2397 35.7981 28.7502 35.9245 29.2551C35.4353 29.3953 34.9241 29.5243 34.4075 29.6421Z" fill="#1D1C1C"/>
<path d="M8.93717 33.7589L8.9371 33.7589C8.9371 33.6158 8.86332 33.4757 8.73114 33.4043C6.88278 32.4053 5.37125 31.2294 4.23256 29.9227C2.55512 27.994 1.67069 25.7527 1.67069 23.4371C1.67069 21.1224 2.54901 18.8876 4.21952 16.9651L4.22273 16.9619L4.22821 16.9563L4.23268 16.9517L4.23254 16.9516C5.37656 15.6395 6.89348 14.4691 8.73664 13.47L8.93717 33.7589ZM8.93717 33.7589L8.93703 33.7628C8.86045 35.8954 9.1013 37.8232 9.6408 39.4861C10.4361 41.9323 11.8937 43.8331 13.8574 44.9902L13.8576 44.9903C15.2249 45.7987 16.7554 46.2035 18.4133 46.2035C20.7726 46.2035 23.2697 45.3713 25.846 43.7245L25.8461 43.7244C25.9053 43.6867 25.9749 43.6623 26.0535 43.6623C26.1346 43.6623 26.1977 43.6884 26.256 43.7215L26.2561 43.7214L26.261 43.7245C28.8374 45.3713 31.3345 46.2035 33.6937 46.2035C35.3458 46.2035 36.8766 45.7933 38.2499 44.99M8.93717 33.7589L38.2499 44.99M38.2499 44.99C40.2136 43.8328 41.6764 41.932 42.4662 39.4862L42.4662 39.4862C43.0057 37.8178 43.2465 35.8958 43.17 33.7636C43.1626 33.6125 43.2478 33.4735 43.3759 33.4043C45.2189 32.4052 46.736 31.2293 47.8802 29.9225C49.5574 27.9995 50.4418 25.7583 50.4418 23.4371C50.4418 21.1215 49.5574 18.8803 47.8799 16.9515C46.7359 15.6394 45.219 14.4691 43.3759 13.47C43.2437 13.3986 43.1699 13.2584 43.1699 13.1154L43.1699 13.1154L43.17 13.1115C43.2466 10.979 43.0057 9.05116 42.4663 7.38825C41.6709 4.942 40.2133 3.04116 38.2496 1.88408C36.286 0.727058 33.9399 0.387322 31.4683 0.909597C29.7852 1.26537 28.033 2.01667 26.261 3.14976L26.2609 3.14982C26.137 3.22887 25.9755 3.22887 25.8516 3.14982L25.8515 3.14976C24.0795 2.01667 22.3273 1.26537 20.6442 0.909595C18.1727 0.387344 15.8321 0.727003 13.8629 1.88407C11.8991 3.04123 10.4361 4.94211 9.64635 7.38804L9.64633 7.38808C9.10686 9.05647 8.86602 10.9784 8.94249 13.1105C8.94998 13.2616 8.86487 13.4006 8.73677 13.4699L38.2499 44.99ZM3.64945 16.4371L3.64931 16.437L3.65376 16.4325L3.65926 16.4269L3.66262 16.4234C4.82499 15.0979 6.33753 13.913 8.1608 12.9003C8.10714 10.7789 8.36153 8.84244 8.9099 7.14668L8.90996 7.14651C9.76363 4.52145 11.3402 2.46761 13.4712 1.21265C15.608 -0.0480974 18.1373 -0.409554 20.7938 0.145134L20.7938 0.145146C22.5051 0.503388 24.2725 1.24845 26.0482 2.36126C27.8237 1.25399 29.5909 0.508996 31.3019 0.145217L31.302 0.14519C33.9533 -0.415226 36.4881 -0.0480351 38.6247 1.21254C40.7613 2.46754 42.338 4.52711 43.1861 7.14664L43.1861 7.14668C43.7345 8.8425 43.9889 10.7735 43.9352 12.9003C45.7649 13.9191 47.2783 15.1049 48.4411 16.4371L48.4411 16.4371C50.2432 18.5027 51.1944 20.9231 51.1944 23.4371C51.1944 25.9513 50.2376 28.3716 48.4412 30.437L48.4411 30.4372C47.2784 31.7693 45.7597 32.9606 43.9352 33.974C43.9889 36.0954 43.7345 38.0318 43.1861 39.7276L43.1861 39.7278C42.3324 42.3528 40.7558 44.4067 38.6248 45.6617L38.6246 45.6618C37.1343 46.5357 35.4771 46.9839 33.6827 46.9839C31.2294 46.9839 28.6624 46.1517 26.0424 44.513C23.4227 46.1461 20.8557 46.9839 18.4024 46.9839C16.6138 46.9839 14.951 46.5416 13.4658 45.6617C11.3292 44.4067 9.75258 42.3471 8.90442 39.7276L8.9044 39.7276C8.35601 38.0318 8.10162 36.1008 8.15531 33.9739C6.32563 32.9552 4.81225 31.7694 3.64946 30.4372L3.727 30.3695L3.64945 30.4371C1.84732 28.3716 0.896135 25.9512 0.896135 23.4371C0.896135 20.9231 1.84732 18.5027 3.64945 16.4371Z" fill="#222121" stroke="#222121" stroke-width="0.219405"/>
<path d="M23.9424 9.896C23.9479 9.90161 23.9534 9.90722 23.9589 9.90722C24.0083 9.94648 24.0578 9.99136 24.1128 10.0306C24.1402 10.0531 24.1677 10.0755 24.2007 10.1036C24.2502 10.1428 24.2996 10.1821 24.3491 10.227C24.3821 10.255 24.4096 10.2775 24.4426 10.3055C24.492 10.3448 24.536 10.384 24.5855 10.4289C24.6129 10.4513 24.6459 10.4794 24.6734 10.5074C24.7613 10.5804 24.8438 10.6589 24.9317 10.7374C24.9647 10.7711 25.0032 10.7991 25.0362 10.8328C25.0801 10.8721 25.1241 10.9113 25.1681 10.9562C25.2011 10.9899 25.2395 11.0179 25.2725 11.0516C25.3165 11.0965 25.366 11.1357 25.4099 11.1806C25.4429 11.2086 25.4704 11.2367 25.5034 11.2704C25.5529 11.3152 25.6023 11.3657 25.6518 11.4106C25.6573 11.4106 25.6573 11.4162 25.6628 11.4162C25.1736 11.9099 24.6899 12.4315 24.2117 12.9813C24.1018 12.9869 23.9918 12.9925 23.8819 12.9981C23.8654 12.9981 23.8434 12.9981 23.8269 12.9981C23.6785 13.0037 23.5246 13.0149 23.3762 13.0206C23.3323 13.0206 23.2883 13.0262 23.2443 13.0262C23.1344 13.0318 23.0299 13.0374 22.92 13.0486C22.8705 13.0542 22.8156 13.0542 22.7661 13.0598C22.6617 13.0654 22.5627 13.0767 22.4583 13.0823C22.4088 13.0879 22.3594 13.0879 22.3099 13.0935C22.1835 13.1047 22.0516 13.1159 21.9251 13.1271C21.9032 13.1271 21.8867 13.1328 21.8647 13.1328C21.7163 13.144 21.5734 13.1608 21.425 13.1776C21.381 13.1832 21.337 13.1888 21.293 13.1945C21.2216 13.2001 21.1556 13.2113 21.0842 13.2169C22.0021 12.0108 22.964 10.8945 23.9424 9.896Z" fill="#61D0D7"/>
<path d="M39.3625 14.4513C39.3405 14.6701 39.313 14.8889 39.2801 15.1301C38.582 14.8665 37.851 14.6196 37.0979 14.4009C37.1089 14.3279 37.1144 14.2662 37.1199 14.2045C37.1199 14.1989 37.1199 14.1933 37.1199 14.1877C37.4937 10.6368 36.8176 8.07319 35.2621 7.15882C34.8114 6.88956 34.2727 6.75493 33.6681 6.75493C32.195 6.75493 30.3537 7.54589 28.353 9.04366C28.298 9.08293 28.2485 9.12219 28.1936 9.16146C28.1881 9.15585 28.1881 9.15585 28.1826 9.15024C28.1221 9.08854 28.0616 9.03244 28.0012 8.97073C27.9847 8.95951 27.9737 8.94269 27.9572 8.93147C27.6934 8.67342 27.4241 8.42099 27.1547 8.17978C27.1437 8.16856 27.1272 8.15734 27.1162 8.14612C27.0558 8.09002 26.9953 8.03954 26.9349 7.98344C26.9184 7.97222 26.9074 7.95539 26.8909 7.94417C26.759 7.82637 26.6216 7.71418 26.4896 7.60198C26.671 7.45613 26.8524 7.3215 27.0228 7.19248C29.4413 5.38616 31.7223 4.46057 33.6846 4.46057C34.674 4.46057 35.5864 4.69618 36.3889 5.17299C38.7964 6.57542 39.8517 9.87389 39.3625 14.4513Z" fill="#61D0D7"/>
<path d="M17.9473 22.7638C17.535 21.7989 17.1613 20.834 16.8425 19.886C17.1008 19.3924 17.3591 18.9212 17.612 18.4668C17.8758 18.0012 18.1506 17.5356 18.431 17.0812C18.8322 17.0027 19.2335 16.9297 19.6457 16.8624C19.6677 16.8568 19.6897 16.8568 19.7117 16.8512C19.8381 16.8288 19.959 16.8119 20.0854 16.7951C20.1129 16.7895 20.1404 16.7895 20.1679 16.7839C20.3053 16.7615 20.4372 16.7446 20.5746 16.7278C20.5856 16.7278 20.5966 16.7222 20.6076 16.7222C20.8769 16.6829 21.1517 16.6549 21.4266 16.6212C20.7725 17.5861 20.1514 18.5902 19.5687 19.6224C18.9806 20.6489 18.4365 21.7035 17.9473 22.7638Z" fill="#61D0D7"/>
<path d="M26.0467 31.0777C27.2175 31.0777 28.3827 31.0329 29.526 30.9375C29.471 31.016 29.4106 31.0946 29.3556 31.1731C29.3391 31.1955 29.3226 31.218 29.3116 31.2348C29.2237 31.3526 29.1357 31.4704 29.0478 31.5882C29.0258 31.6163 29.0038 31.6499 28.9818 31.678C28.9159 31.7677 28.8499 31.8519 28.784 31.936C28.751 31.9753 28.7235 32.0145 28.6905 32.0538C28.6301 32.1323 28.5696 32.2109 28.5091 32.2838C28.4762 32.3231 28.4487 32.3623 28.4157 32.4016C28.3497 32.4857 28.2838 32.5643 28.2178 32.6484C28.1903 32.6821 28.1684 32.7101 28.1409 32.7438C28.0529 32.856 27.9595 32.9626 27.8715 33.0691C27.8496 33.0916 27.8331 33.114 27.8111 33.1365C27.7506 33.2038 27.6957 33.2711 27.6352 33.3384C27.0965 33.3552 26.5634 33.3665 26.0467 33.3665C25.5355 33.3665 25.0024 33.3552 24.4582 33.3384C24.4472 33.3272 24.4417 33.316 24.4307 33.3104C24.2054 33.0467 23.98 32.7718 23.7601 32.497C23.7491 32.4857 23.7382 32.4689 23.7272 32.4577C23.6557 32.3736 23.5898 32.2838 23.5238 32.1997C23.5073 32.1772 23.4908 32.1604 23.4798 32.1379C23.4084 32.0482 23.3424 31.9584 23.271 31.8687C23.2655 31.8575 23.2545 31.8462 23.249 31.8406C23.0181 31.5433 22.7928 31.2348 22.5674 30.9263C23.7107 31.0329 24.8759 31.0777 26.0467 31.0777Z" fill="#61D0D7"/>
<path d="M32.3194 32.839C32.3689 32.7717 32.4128 32.7044 32.4623 32.6427C32.5118 32.5698 32.5613 32.4968 32.6107 32.4295C32.6767 32.3342 32.7426 32.2388 32.8086 32.1434C32.8526 32.0761 32.8965 32.0144 32.9405 31.9471C32.9845 31.8854 33.0285 31.8181 33.0724 31.7564C33.1109 31.7003 33.1494 31.6386 33.1934 31.5769C33.2373 31.5095 33.2813 31.4422 33.3308 31.3749C33.3637 31.3244 33.4022 31.2683 33.4352 31.2178C33.4847 31.1449 33.5341 31.072 33.5781 30.9935C33.5891 30.971 33.6056 30.9486 33.6166 30.9317C33.743 30.7354 33.8639 30.5391 33.9904 30.3427C33.9958 30.3315 34.0013 30.3259 34.0068 30.3147C34.7104 30.1688 35.403 30.0005 36.0625 29.8154C36.2439 30.5952 36.3868 31.3525 36.4913 32.0817C35.1501 32.4351 33.7265 32.7268 32.2425 32.94C32.2699 32.9063 32.2919 32.8727 32.3194 32.839Z" fill="#61D0D7"/>
<path d="M19.8533 32.9402C18.3693 32.7271 16.9457 32.4298 15.61 32.0651C15.6155 32.0427 15.6155 32.0146 15.621 31.9922C15.621 31.9754 15.6265 31.9585 15.6265 31.9417C15.6375 31.852 15.654 31.7566 15.6705 31.6668C15.676 31.65 15.676 31.6276 15.6815 31.6108C15.698 31.5098 15.7144 31.4088 15.7309 31.3134C15.7309 31.3078 15.7309 31.2966 15.7364 31.291C15.7749 31.0666 15.8189 30.8366 15.8683 30.6066C15.8683 30.601 15.8738 30.5898 15.8738 30.5842C15.8958 30.4776 15.9178 30.371 15.9398 30.2644C15.9398 30.2532 15.9453 30.242 15.9453 30.2308C15.9783 30.0905 16.0058 29.9503 16.0387 29.8101C16.6983 29.9952 17.3909 30.1635 18.0889 30.3093C18.6496 31.2069 19.2432 32.0932 19.8533 32.9402Z" fill="#61D0D7"/>
<path d="M25.8798 7.80886C26.5833 8.38104 27.2869 9.02615 27.9849 9.72735C29.1612 10.911 30.3155 12.2573 31.4148 13.7382C31.4148 13.7382 31.4148 13.7382 31.4148 13.7438C32.1788 14.7704 32.9153 15.8587 33.6024 16.9806C33.9102 17.4799 34.2015 17.9791 34.4818 18.4672C34.7402 18.9271 34.9985 19.404 35.2513 19.8808C34.9325 20.8288 34.5643 21.7937 34.1465 22.7585C33.6519 21.7039 33.1132 20.6437 32.5251 19.6171C31.838 18.3998 31.096 17.2218 30.321 16.1111C29.5679 15.0284 28.7764 14.0019 27.9684 13.0651C27.4023 12.4031 26.8197 11.7805 26.237 11.2027C25.5225 10.4959 24.8024 9.85637 24.0879 9.30102C23.978 9.21127 23.857 9.12151 23.7416 9.03737C21.7409 7.5396 19.8995 6.74864 18.4265 6.74864C17.8218 6.74864 17.2832 6.88327 16.8325 7.15253C15.2715 8.07251 14.5954 10.6417 14.9801 14.2038C14.9856 14.2711 14.9966 14.3385 15.0021 14.4002C14.9637 14.4114 14.9307 14.4226 14.8977 14.4338C14.8812 14.4394 14.8647 14.445 14.8482 14.4507C14.7493 14.4787 14.6559 14.5068 14.5569 14.5404C14.5404 14.546 14.5184 14.5516 14.5019 14.5572C14.2821 14.6246 14.0677 14.6919 13.8589 14.7648C13.8259 14.776 13.7874 14.7872 13.7544 14.7985C13.6885 14.8209 13.6225 14.8433 13.5565 14.8658C13.5126 14.8826 13.4686 14.8938 13.4301 14.9106C13.3697 14.9331 13.3092 14.9555 13.2487 14.978C13.2048 14.9948 13.1663 15.006 13.1223 15.0228C13.0344 15.0565 12.9519 15.0845 12.864 15.1182C12.853 15.1238 12.842 15.1294 12.8255 15.1294C12.7925 14.8938 12.765 14.6694 12.7431 14.4507C12.2539 9.8732 13.3092 6.57474 15.7112 5.16109C15.7167 5.15548 15.7222 5.15548 15.7277 5.14987C18.1297 3.74746 21.4496 4.4655 25.0828 7.18058C25.3301 7.3657 25.5939 7.57325 25.8798 7.80886Z" fill="#61D0D7"/>
<path d="M24.1138 37.1532C22.9375 35.9696 21.7833 34.6177 20.6785 33.1424C19.9144 32.1158 19.1779 31.0275 18.4908 29.9056C18.183 29.4063 17.8862 28.9071 17.6114 28.4134C17.3311 27.9198 17.0562 27.4093 16.7869 26.8876C16.7704 26.854 16.7539 26.8259 16.7374 26.7923C16.1493 25.6479 15.6052 24.4867 15.1325 23.3367C14.4619 21.7099 13.9177 20.1 13.5055 18.5349C14.1761 18.26 14.8906 18.0076 15.6436 17.7776C15.825 18.4956 16.0449 19.2249 16.2867 19.9541C16.6825 21.1434 17.1552 22.355 17.6938 23.5611C18.249 24.8064 18.8811 26.0518 19.5682 27.2635C20.2552 28.4808 20.9973 29.6588 21.7723 30.7695C22.5253 31.8521 23.3168 32.8731 24.1248 33.8155C24.6909 34.4718 25.2736 35.1001 25.8562 35.6723C25.8562 35.6723 25.8562 35.6723 25.8562 35.6779C26.5652 36.3791 27.2908 37.0186 28.0053 37.5796C28.0053 37.5796 28.0108 37.5796 28.0108 37.5852C28.1208 37.6693 28.2362 37.7591 28.3516 37.8432C31.1823 39.9581 33.6997 40.648 35.2607 39.7281C36.8218 38.8081 37.4978 36.2389 37.1131 32.6768C37.0966 32.5197 37.0801 32.3682 37.0636 32.2392C36.9482 31.3304 36.7668 30.3712 36.5249 29.3895C36.3381 28.621 36.1072 27.83 35.8489 27.0447C36.3381 26.0911 36.7943 25.1262 37.2065 24.167C37.7946 25.6647 38.2783 27.1513 38.6466 28.5929C38.8939 29.5578 39.0863 30.5058 39.2182 31.409C39.2732 31.7736 39.3172 32.1102 39.3502 32.4299C39.8393 37.0074 38.784 40.3059 36.382 41.7195C35.585 42.1907 34.6726 42.4319 33.6777 42.4319C31.71 42.4319 29.4014 41.4895 27.0105 39.7C26.7576 39.5093 26.4938 39.3073 26.208 39.0717C25.5154 38.4939 24.8063 37.8488 24.1138 37.1532Z" fill="#61D0D7"/>
<path d="M5.36265 23.4376C5.36265 20.6103 7.62722 18.0299 11.7441 16.1787C11.7496 16.1787 11.7606 16.1731 11.7661 16.1731C12.0574 16.0441 12.3707 15.9095 12.7005 15.7804C13.536 15.4495 14.4374 15.1409 15.3773 14.8773C16.9713 14.4285 18.6972 14.0807 20.5001 13.8507C21.7478 13.688 23.045 13.5815 24.3422 13.5366C24.9248 13.5141 25.4964 13.5029 26.0461 13.5029C26.5573 13.5029 27.0904 13.5141 27.6346 13.531C28.2777 14.2883 28.9153 15.0961 29.5254 15.9431C27.041 15.7412 24.4356 15.758 21.9677 15.9992C20.676 16.1226 19.4118 16.3134 18.2025 16.5602C17.3561 16.7341 16.5371 16.936 15.7566 17.1604C14.8057 17.4353 13.8988 17.755 13.0688 18.1084C12.9369 18.1645 12.805 18.2206 12.673 18.2823C9.45757 19.7296 7.61623 21.6088 7.61623 23.4488C7.61623 25.2888 9.45757 27.168 12.673 28.6097C12.7335 28.6377 12.794 28.6657 12.8544 28.6882C12.662 29.4679 12.5026 30.2364 12.3817 30.9825C12.1674 30.8928 11.9585 30.803 11.7661 30.7189C7.63272 28.8509 5.36265 26.2704 5.36265 23.4376Z" fill="#61D0D7"/>
<path d="M11.5435 15.6583C11.549 15.6527 11.56 15.6527 11.5655 15.6471C11.7963 15.5461 12.0437 15.4395 12.2965 15.3329C12.2525 15.0412 12.2196 14.772 12.1921 14.5083C11.6809 9.70647 12.8242 6.21728 15.4185 4.68022C15.424 4.67461 15.4295 4.67461 15.435 4.669C18.0404 3.13196 21.5801 3.86682 25.4057 6.72215C25.6146 6.87922 25.829 7.04189 26.0543 7.22701C26.2742 7.0475 26.494 6.87922 26.7029 6.72215C30.5285 3.86121 34.0683 3.13196 36.6736 4.669C39.279 6.20045 40.4277 9.69525 39.9166 14.5083C39.8891 14.772 39.8561 15.0412 39.8121 15.3329C40.076 15.4395 40.3288 15.5461 40.5652 15.6527C44.9019 17.6048 47.2929 20.3648 47.2929 23.4332C47.2929 26.5017 44.9019 29.2672 40.5652 31.2138C40.3233 31.3204 40.076 31.4269 39.8121 31.5335C39.8506 31.8252 39.8891 32.0945 39.9166 32.3581C40.4332 37.1712 39.279 40.6604 36.6791 42.1974C35.7942 42.7191 34.7938 42.9828 33.7 42.9828C31.6113 42.9828 29.1928 42.0011 26.7084 40.1443C26.4995 39.9872 26.2852 39.8246 26.0598 39.6394C25.84 39.819 25.6201 39.9872 25.4112 40.1443C22.9268 42.0011 20.5083 42.9828 18.4196 42.9828C17.3258 42.9828 16.3255 42.7191 15.4405 42.1974C12.8352 40.666 11.6864 37.1712 12.1976 32.3581C12.1976 32.3525 12.1976 32.3469 12.1976 32.3413C12.225 32.0833 12.258 31.8196 12.302 31.5335C12.0382 31.4269 11.7853 31.3204 11.549 31.2138C7.21221 29.2616 4.82122 26.5017 4.82122 23.4332C4.81573 20.3704 7.20672 17.6048 11.5435 15.6583ZM25.0759 39.6955C25.2463 39.5665 25.4277 39.4263 25.6091 39.286C25.0375 38.8036 24.4658 38.2819 23.8997 37.721C23.8502 37.7602 23.7952 37.7995 23.7403 37.8388C21.734 39.3421 19.8817 40.1219 18.4196 40.1219C17.8205 40.1219 17.2873 39.9929 16.8311 39.7236C15.2701 38.8036 14.594 36.2344 14.9788 32.6779C14.9898 32.5489 15.0063 32.4086 15.0283 32.2403C15.1437 31.3316 15.3251 30.3723 15.5669 29.3907C15.7538 28.6221 15.9847 27.8312 16.243 27.0458C15.7538 26.0922 15.2976 25.1273 14.8854 24.1681C14.2972 25.6659 13.8135 27.1524 13.4453 28.5941C13.1979 29.5589 13.0056 30.507 12.8736 31.4101C12.8187 31.7804 12.7747 32.1113 12.7417 32.4311C12.7417 32.4367 12.7417 32.4423 12.7417 32.4479C12.258 37.0141 13.3134 40.3126 15.7098 41.7262C16.5068 42.1974 17.4193 42.4387 18.4141 42.4387C20.3819 42.433 22.6849 41.485 25.0759 39.6955ZM33.6835 42.4274C34.6784 42.4274 35.5853 42.1862 36.3878 41.715C38.7898 40.3014 39.8451 36.9973 39.3559 32.4255C39.3229 32.1057 39.279 31.7691 39.224 31.4045C39.0866 30.5014 38.8942 29.5533 38.6524 28.5885C38.2841 27.1468 37.8004 25.6659 37.2123 24.1625C36.8 25.1217 36.3438 26.0866 35.8546 27.0402C36.113 27.8312 36.3383 28.6165 36.5307 29.385C36.7725 30.3667 36.9539 31.326 37.0694 32.2347C37.0859 32.3638 37.1023 32.5208 37.1188 32.6723C37.4981 36.2344 36.822 38.8036 35.2665 39.7236C33.7055 40.6436 31.1881 39.9536 28.3574 37.8388C28.2419 37.7546 28.1265 37.6649 28.0166 37.5807C28.0166 37.5807 28.0111 37.5807 28.0111 37.5751C27.2965 37.0141 26.571 36.3746 25.8619 35.6734C25.8619 35.6734 25.8619 35.6734 25.8619 35.6678C25.2793 35.0956 24.7022 34.4674 24.1305 33.811C23.3225 32.8742 22.531 31.8477 21.778 30.765C21.003 29.6543 20.261 28.4763 19.5739 27.259C18.8868 26.0473 18.2547 24.7964 17.6996 23.5566C17.1609 22.3506 16.6882 21.1389 16.2925 19.9496C16.0506 19.2204 15.8363 18.4855 15.6494 17.7731C14.9019 17.9975 14.1818 18.2555 13.5112 18.5304C13.9235 20.0899 14.4676 21.7055 15.1382 23.3323C15.6109 24.4822 16.1496 25.6434 16.7432 26.7878C16.7597 26.8214 16.7762 26.8495 16.7927 26.8831C17.062 27.3992 17.3368 27.9153 17.6171 28.409C17.8975 28.9026 18.1943 29.4019 18.4966 29.9011C19.1891 31.0287 19.9257 32.1169 20.6842 33.1379C21.7835 34.6188 22.9378 35.9651 24.1195 37.1488C24.8121 37.8444 25.5212 38.4895 26.2247 39.0673C26.5105 39.2973 26.7689 39.5048 27.0272 39.6955C29.4127 41.485 31.7157 42.4274 33.6835 42.4274ZM33.6835 4.45022C31.7212 4.45022 29.4402 5.37581 27.0217 7.18214C26.8513 7.31116 26.6699 7.4514 26.4885 7.59164C26.6205 7.70383 26.7579 7.82163 26.8898 7.93383C26.9063 7.94504 26.9173 7.96187 26.9338 7.97309C26.9942 8.02919 27.0547 8.07968 27.1151 8.13577C27.1261 8.14699 27.1426 8.15821 27.1536 8.16943C27.423 8.41064 27.6923 8.66308 27.9561 8.92112C27.9726 8.93234 27.9836 8.94917 28.0001 8.96039C28.0606 9.02209 28.121 9.07819 28.1815 9.1399C28.187 9.14551 28.187 9.14551 28.1925 9.15112C28.2419 9.11185 28.2969 9.07258 28.3519 9.03331C30.3526 7.53554 32.1884 6.74458 33.667 6.74458C34.2716 6.74459 34.8103 6.87922 35.261 7.14848C36.8165 8.06285 37.4926 10.6264 37.1188 14.1773C37.1188 14.183 37.1188 14.1886 37.1188 14.1942C37.1133 14.2559 37.1078 14.3232 37.0968 14.3905C37.8499 14.6093 38.5809 14.8505 39.279 15.1198C39.3119 14.8842 39.3394 14.6598 39.3614 14.441C39.8506 9.86354 38.7953 6.56508 36.3933 5.15143C35.5853 4.68583 34.6729 4.45022 33.6835 4.45022ZM15.7208 5.15143C15.7153 5.15704 15.7098 5.15704 15.7044 5.16265C13.3024 6.57629 12.247 9.88036 12.7362 14.4522C12.7582 14.671 12.7857 14.8954 12.8187 15.131C12.8297 15.1254 12.8407 15.1198 12.8571 15.1198C12.9396 15.0861 13.0275 15.0581 13.1155 15.0244C13.1595 15.0076 13.1979 14.9963 13.2419 14.9795C13.3024 14.9571 13.3628 14.9346 13.4233 14.9122C13.4673 14.8954 13.5112 14.8842 13.5497 14.8673C13.6157 14.8449 13.6816 14.8224 13.7476 14.8C13.7806 14.7888 13.819 14.7776 13.852 14.7664C14.0664 14.6934 14.2808 14.6261 14.4951 14.5588C14.5116 14.5532 14.5336 14.5476 14.5501 14.542C14.649 14.5139 14.7425 14.4803 14.8414 14.4522C14.8579 14.4466 14.8744 14.441 14.8909 14.4354C14.9293 14.4242 14.9623 14.4129 14.9953 14.4017C14.9898 14.34 14.9788 14.2727 14.9733 14.2054C14.5941 10.6433 15.2701 8.07407 16.8256 7.15409C17.2764 6.88482 17.815 6.75019 18.4196 6.75019C19.8927 6.75019 21.734 7.54115 23.7348 9.03892C23.8502 9.12868 23.9711 9.21843 24.0811 9.30257C24.7956 9.85793 25.5157 10.4974 26.2302 11.2042C26.8128 11.7764 27.3955 12.4047 27.9616 13.0666C28.7696 14.0034 29.5611 15.03 30.3141 16.1127C31.0891 17.2234 31.8312 18.4014 32.5182 19.6187C33.1009 20.6509 33.645 21.7055 34.1397 22.7601C34.552 21.7952 34.9257 20.8304 35.2445 19.8823C34.9917 19.3999 34.7333 18.9231 34.475 18.4687C34.1947 17.9751 33.9034 17.4758 33.5956 16.9822C32.903 15.8602 32.1665 14.7664 31.4079 13.7454C31.4079 13.7454 31.4079 13.7454 31.4079 13.7398C30.3086 12.2645 29.1544 10.9125 27.9781 9.72891C27.2855 9.03331 26.5765 8.38821 25.8729 7.81041C25.5871 7.57481 25.3233 7.37286 25.0704 7.18213C21.4482 4.46705 18.1228 3.74341 15.7208 5.15143ZM15.5285 32.7396C15.1712 36.0717 15.7483 38.439 17.1115 39.2412C18.4746 40.0433 20.7722 39.3702 23.4215 37.39C23.449 37.3675 23.4764 37.3451 23.5094 37.3227C22.4156 36.2007 21.3438 34.9386 20.3214 33.5698C18.6505 33.3511 17.0455 33.0313 15.545 32.6274C15.534 32.6667 15.5285 32.7059 15.5285 32.7396ZM15.9407 30.2265C15.9407 30.2377 15.9352 30.2489 15.9352 30.2601C15.9132 30.3667 15.8912 30.4733 15.8692 30.5799C15.8692 30.5855 15.8638 30.5967 15.8638 30.6023C15.8143 30.8323 15.7758 31.0623 15.7318 31.2867C15.7318 31.2923 15.7318 31.3035 15.7263 31.3091C15.7098 31.4101 15.6934 31.5111 15.6769 31.6065C15.6714 31.6233 15.6714 31.6457 15.6659 31.6626C15.6494 31.7523 15.6384 31.8477 15.6219 31.9374C15.6219 31.9543 15.6164 31.9711 15.6164 31.9879C15.6109 32.0104 15.6109 32.0384 15.6054 32.0608C16.9411 32.4255 18.3647 32.7228 19.8487 32.9359C19.2386 32.0889 18.6505 31.2026 18.0843 30.2938C17.3808 30.148 16.6937 29.9797 16.0341 29.7945C16.0067 29.946 15.9737 30.0862 15.9407 30.2265ZM17.6886 29.6431C17.4962 29.3233 17.3148 29.0036 17.1334 28.6895C16.9576 28.3753 16.7762 28.05 16.6058 27.7246C16.4464 28.2407 16.298 28.7512 16.1716 29.256C16.6662 29.3963 17.1719 29.5253 17.6886 29.6431ZM21.4207 13.1732C21.5691 13.1564 21.7121 13.1452 21.8605 13.1283C21.8825 13.1283 21.8989 13.1227 21.9209 13.1227C22.0473 13.1115 22.1793 13.1003 22.3057 13.0891C22.3552 13.0835 22.4046 13.0835 22.4541 13.0779C22.5585 13.0722 22.6575 13.061 22.7619 13.0554C22.8114 13.0498 22.8663 13.0498 22.9158 13.0442C23.0257 13.0386 23.1302 13.0274 23.2401 13.0218C23.2841 13.0218 23.328 13.0161 23.372 13.0161C23.5204 13.0049 23.6743 12.9993 23.8227 12.9937C23.8392 12.9937 23.8612 12.9937 23.8777 12.9937C23.9876 12.9881 24.0976 12.9825 24.2075 12.9769C24.6857 12.4271 25.1694 11.8998 25.6586 11.4118C25.6531 11.4118 25.6531 11.4062 25.6476 11.4062C25.5981 11.3557 25.5486 11.3108 25.4992 11.2659C25.4662 11.2379 25.4387 11.2042 25.4057 11.1762C25.3618 11.1313 25.3123 11.092 25.2683 11.0472C25.2353 11.0135 25.1969 10.9855 25.1639 10.9518C25.1199 10.9125 25.0759 10.8677 25.032 10.8284C24.999 10.7947 24.9605 10.7667 24.9275 10.733C24.8396 10.6545 24.7571 10.5816 24.6692 10.503C24.6417 10.475 24.6087 10.4525 24.5812 10.4245C24.5318 10.3852 24.4878 10.3404 24.4383 10.3011C24.4054 10.273 24.3779 10.2506 24.3449 10.2226C24.2954 10.1833 24.246 10.144 24.1965 10.0991C24.169 10.0767 24.1415 10.0543 24.1085 10.0262C24.0591 9.98695 24.0096 9.94207 23.9546 9.9028C23.9491 9.8972 23.9437 9.89159 23.9382 9.89159C22.9598 10.8901 21.9979 12.0008 21.0745 13.2069C21.1459 13.2013 21.2119 13.19 21.2833 13.1844C21.3328 13.1844 21.3768 13.1788 21.4207 13.1732ZM26.0488 11.7989C25.686 12.1635 25.3233 12.5505 24.966 12.9488C25.3343 12.9376 25.697 12.9376 26.0488 12.9376C26.4006 12.9376 26.7634 12.9432 27.1316 12.9488C26.7744 12.5506 26.4116 12.1635 26.0488 11.7989ZM20.3159 13.3078C21.3383 11.9391 22.4101 10.6825 23.5039 9.55501C23.4764 9.53257 23.449 9.51013 23.416 9.48769C21.5362 8.08529 19.7663 7.31116 18.4251 7.31116C17.9195 7.31116 17.4742 7.42335 17.106 7.63651C15.7428 8.43869 15.1657 10.8116 15.523 14.1381C15.5285 14.1773 15.5285 14.211 15.534 14.2503C17.04 13.8464 18.6395 13.5266 20.3159 13.3078ZM20.6073 16.7185C20.5963 16.7185 20.5853 16.7241 20.5743 16.7241C20.4369 16.7409 20.2995 16.7634 20.1675 16.7802C20.1401 16.7858 20.1126 16.7858 20.0851 16.7914C19.9587 16.8083 19.8322 16.8307 19.7113 16.8475C19.6893 16.8531 19.6673 16.8531 19.6454 16.8587C19.2331 16.9261 18.8264 16.999 18.4306 17.0775C18.1503 17.5375 17.8755 18.0031 17.6116 18.4631C17.3588 18.9119 17.1005 19.3887 16.8421 19.8823C17.1609 20.8304 17.5292 21.7952 17.9469 22.7601C18.4416 21.6999 18.9803 20.6452 19.5684 19.6131C20.151 18.5809 20.7776 17.5768 21.4262 16.6119C21.1514 16.6456 20.8766 16.6792 20.6073 16.7185ZM17.1389 18.1882C17.3203 17.8741 17.5017 17.5543 17.6941 17.2346C17.1719 17.3524 16.6662 17.4814 16.1771 17.616C16.309 18.1209 16.4519 18.637 16.6113 19.1531C16.7817 18.8221 16.9631 18.4968 17.1389 18.1882ZM22.1463 16.539C21.4043 17.6104 20.6952 18.738 20.0411 19.8992C19.387 21.0604 18.7824 22.2496 18.2437 23.4388C18.7824 24.6281 19.3815 25.8173 20.0411 26.9785C20.7007 28.1397 21.4097 29.2729 22.1463 30.3387C24.6967 30.5799 27.401 30.5799 29.9514 30.3387C30.6934 29.2672 31.4024 28.1397 32.0565 26.9785C32.7106 25.8173 33.3152 24.6281 33.8539 23.4388C33.3152 22.2496 32.7106 21.0604 32.0565 19.8992C31.3969 18.738 30.6879 17.6048 29.9514 16.539C27.3955 16.3034 24.7022 16.3034 22.1463 16.539ZM26.0488 35.0788C26.4116 34.7142 26.7744 34.3271 27.1316 33.9288C26.7634 33.9401 26.4006 33.9401 26.0488 33.9401C25.697 33.9401 25.3343 33.9345 24.966 33.9288C25.3233 34.3271 25.686 34.7142 26.0488 35.0788ZM36.5692 32.7396C36.5637 32.7003 36.5637 32.6667 36.5582 32.633C35.0576 33.0369 33.4581 33.3567 31.7817 33.5754C30.7593 34.9442 29.6875 36.2007 28.5937 37.3283C28.6212 37.3507 28.6487 37.3732 28.6762 37.39C31.3255 39.3702 33.623 40.0433 34.9862 39.2412C36.3493 38.439 36.9265 36.0661 36.5692 32.7396ZM23.2731 31.8869C23.339 31.9767 23.4105 32.0664 23.4819 32.1562C23.4984 32.1786 23.5149 32.1955 23.5259 32.2179C23.5919 32.3077 23.6633 32.3918 23.7293 32.4759C23.7403 32.4872 23.7513 32.504 23.7623 32.5152C23.9821 32.7901 24.2075 33.065 24.4328 33.3286C24.4438 33.3398 24.4493 33.3511 24.4603 33.3567C24.999 33.3735 25.5321 33.3847 26.0488 33.3847C26.56 33.3847 27.0932 33.3735 27.6373 33.3567C27.6978 33.2893 27.7527 33.222 27.8132 33.1547C27.8352 33.1323 27.8517 33.1098 27.8737 33.0874C27.9616 32.9808 28.0551 32.8686 28.143 32.762C28.1705 32.734 28.1925 32.7003 28.2199 32.6667C28.2859 32.5881 28.3519 32.504 28.4178 32.4199C28.4508 32.3806 28.4783 32.3413 28.5113 32.3021C28.5717 32.2235 28.6322 32.1506 28.6926 32.0721C28.7256 32.0328 28.7531 31.9935 28.7861 31.9543C28.852 31.8701 28.918 31.7804 28.984 31.6962C29.006 31.6682 29.0279 31.6345 29.0499 31.6065C29.1379 31.4887 29.2258 31.3709 29.3138 31.2531C29.3302 31.2306 29.3467 31.2082 29.3577 31.1913C29.4127 31.1128 29.4732 31.0343 29.5281 30.9557C28.3848 31.0511 27.2196 31.096 26.0488 31.096C24.8781 31.096 23.7128 31.0511 22.5695 30.9557C22.7949 31.2643 23.0202 31.5728 23.2511 31.8701C23.2566 31.8645 23.2676 31.8757 23.2731 31.8869ZM26.4446 35.4715C27.0107 36.0212 27.5823 36.5261 28.154 36.9805C29.2753 35.8361 30.3691 34.5459 31.4189 33.1435C32.1829 32.1169 32.9195 31.0287 33.6065 29.9067C33.9089 29.4131 34.2057 28.9138 34.486 28.4146C34.7608 27.9322 35.0356 27.4217 35.3105 26.8888C35.9206 25.7107 36.4757 24.5159 36.9649 23.3323C37.6355 21.7055 38.1797 20.0899 38.5919 18.5304C38.5809 18.5248 38.5699 18.5192 38.5589 18.5192C38.5095 18.4968 38.46 18.4799 38.4105 18.4575C38.3665 18.4407 38.3171 18.4238 38.2731 18.4014C38.2236 18.3846 38.1742 18.3621 38.1247 18.3453C38.0752 18.3285 38.0258 18.306 37.9818 18.2892C37.9323 18.2724 37.8828 18.2499 37.8334 18.2331C37.7729 18.2107 37.707 18.1882 37.6465 18.1658C37.575 18.1377 37.5036 18.1153 37.4321 18.0873C37.3772 18.0648 37.3167 18.048 37.2562 18.0255C37.2068 18.0087 37.1573 17.9919 37.1078 17.9751C37.0529 17.9582 37.0034 17.9414 36.9484 17.9246C36.899 17.9077 36.8495 17.8909 36.7945 17.8741C36.7396 17.8573 36.6846 17.8404 36.6296 17.8236C36.5802 17.8068 36.5307 17.7899 36.4812 17.7787C36.4702 17.7731 36.4647 17.7731 36.4537 17.7675C36.2724 18.4855 36.0525 19.2148 35.8107 19.944C35.4149 21.1277 34.9422 22.345 34.4035 23.551C33.8484 24.7964 33.2163 26.0417 32.5292 27.2534C31.8422 28.4651 31.1001 29.6487 30.3251 30.7594C29.5721 31.8421 28.7806 32.8686 27.9726 33.8054C27.9726 33.8054 27.9726 33.811 27.9671 33.811C27.4669 34.4001 26.9557 34.9554 26.4446 35.4715ZM36.058 29.8058C35.3984 29.9909 34.7114 30.1592 34.0023 30.305C33.9968 30.3162 33.9913 30.3219 33.9858 30.3331C33.8649 30.5294 33.7385 30.7257 33.612 30.9221C33.6011 30.9445 33.5846 30.967 33.5736 30.9838C33.5241 31.0567 33.4746 31.1352 33.4307 31.2082C33.3977 31.2587 33.3592 31.3148 33.3262 31.3652C33.2823 31.4326 33.2383 31.4999 33.1888 31.5672C33.1503 31.6289 33.1119 31.685 33.0679 31.7467C33.0239 31.8084 32.9799 31.8757 32.936 31.9374C32.892 32.0047 32.848 32.0664 32.8041 32.1338C32.7381 32.2291 32.6721 32.3245 32.6062 32.4199C32.5567 32.4928 32.5072 32.5657 32.4578 32.633C32.4083 32.7003 32.3643 32.7677 32.3149 32.8294C32.2874 32.863 32.2654 32.9023 32.2379 32.9359C33.722 32.7228 35.1456 32.4255 36.4812 32.0608C36.3823 31.3428 36.2394 30.5799 36.058 29.8058ZM35.9261 17.6217C35.4314 17.4814 34.9257 17.358 34.409 17.2402C34.6014 17.5599 34.7828 17.8741 34.9642 18.1938C35.1401 18.508 35.3215 18.8333 35.4919 19.1587C35.6513 18.637 35.7942 18.1265 35.9261 17.6217ZM37.5146 23.4388C38.1632 25.0264 38.6963 26.6027 39.1031 28.1341C39.1361 28.1173 39.169 28.106 39.202 28.0892C42.2086 26.7373 43.929 25.0432 43.929 23.4388C43.929 21.8345 42.2086 20.1404 39.202 18.7885C39.169 18.7716 39.1361 18.7604 39.1031 18.7436C38.6963 20.275 38.1632 21.8513 37.5146 23.4388ZM34.9587 28.6895C34.7773 29.0092 34.5959 29.3233 34.4035 29.6431C34.9257 29.5253 35.4314 29.3963 35.9206 29.2616C35.7887 28.7568 35.6458 28.2407 35.4864 27.7302C35.316 28.0556 35.1346 28.3809 34.9587 28.6895ZM36.5582 14.2503C36.5637 14.2166 36.5637 14.1886 36.5692 14.1605C36.5692 14.1549 36.5692 14.1493 36.5692 14.1381C36.9265 10.806 36.3493 8.43869 34.9862 7.63652C34.6179 7.41774 34.1727 7.31116 33.667 7.31116C32.3314 7.31116 30.556 8.08529 28.6762 9.48769C28.6487 9.51013 28.6212 9.53257 28.5882 9.55501C29.682 10.6769 30.7539 11.9391 31.7762 13.3078C33.4581 13.5266 35.0631 13.8464 36.5582 14.2503ZM12.9946 18.7436C12.9616 18.7604 12.9286 18.7716 12.8956 18.7885C9.88902 20.1404 8.16861 21.8345 8.16861 23.4388C8.16861 25.0432 9.88902 26.7373 12.8956 28.0892C12.9286 28.106 12.9616 28.1173 12.9946 28.1341C13.4013 26.6027 13.9345 25.0264 14.5831 23.4388C13.9345 21.8513 13.4013 20.275 12.9946 18.7436ZM39.3999 15.7761C38.5589 15.4451 37.663 15.1422 36.7341 14.8785C36.7286 14.8785 36.7231 14.8785 36.7176 14.8729C35.316 14.4747 33.8099 14.1605 32.2434 13.9305C32.8535 14.7776 33.4471 15.6639 34.0078 16.5727C34.8048 16.7409 35.5908 16.9317 36.3383 17.1504C37.2892 17.4253 38.1962 17.7451 39.0261 18.0985C39.1471 18.149 39.2845 18.2107 39.4274 18.2724C42.6373 19.714 44.4842 21.5989 44.4842 23.4332C44.4842 25.2732 42.6428 27.1524 39.4274 28.5997C39.3669 28.6277 39.3064 28.6502 39.2515 28.6782C39.4439 29.458 39.6033 30.2265 39.7242 30.9726C39.9385 30.8828 40.1474 30.7931 40.3398 30.7089C44.4677 28.8521 46.7378 26.2717 46.7378 23.4388C46.7378 20.606 44.4622 18.0255 40.3398 16.1688C40.043 16.0397 39.7297 15.9051 39.3999 15.7761ZM12.3789 30.9726C12.4999 30.2321 12.6593 29.4636 12.8517 28.6782C12.7912 28.6502 12.7307 28.6277 12.6703 28.5997C9.46029 27.158 7.61346 25.2732 7.61346 23.4388C7.61346 21.5989 9.4548 19.7197 12.6703 18.2724C12.8022 18.2107 12.9396 18.1546 13.066 18.0985C13.896 17.7451 14.8029 17.4253 15.7538 17.1504C16.5288 16.9261 17.3533 16.7241 18.1998 16.5502C19.4035 16.3034 20.6677 16.1183 21.9649 15.9893C24.4328 15.748 27.0382 15.7312 29.5226 15.9332C28.9125 15.0805 28.2749 14.2727 27.6318 13.521C27.0932 13.5042 26.56 13.493 26.0433 13.493C25.4937 13.493 24.9165 13.5042 24.3394 13.5266C23.0367 13.5771 21.745 13.6837 20.4973 13.8408C18.6945 14.0708 16.9686 14.4186 15.3746 14.8673C14.4347 15.131 13.5332 15.4339 12.6977 15.7705C12.368 15.8995 12.0547 16.0341 11.7633 16.1631C11.7578 16.1688 11.7523 16.1688 11.7414 16.1688C7.62445 18.0255 5.35988 20.6004 5.35988 23.4276C5.35988 26.2605 7.63545 28.8409 11.7578 30.6977C11.9612 30.7987 12.1646 30.8828 12.3789 30.9726Z" fill="#222121"/>
<path d="M27.9679 33.8148C28.7814 32.8724 29.5729 31.8458 30.3259 30.7631C31.1064 29.6468 31.8485 28.4688 32.53 27.2571C33.2171 26.0454 33.8492 24.8001 34.4044 23.5548C34.943 22.3487 35.4157 21.137 35.8115 19.9478C36.0533 19.2185 36.2677 18.4837 36.4546 17.7712C36.4656 17.7768 36.4711 17.7769 36.482 17.7825C36.5315 17.7993 36.581 17.8161 36.6305 17.8273C36.6854 17.8442 36.7404 17.861 36.7953 17.8778C36.8448 17.8947 36.8943 17.9115 36.9492 17.9283C37.0042 17.9451 37.0537 17.962 37.1086 17.9788C37.1581 17.9956 37.2076 18.0125 37.2571 18.0293C37.3175 18.0517 37.3725 18.0686 37.4329 18.091C37.5044 18.1134 37.5759 18.1415 37.6473 18.1695C37.7078 18.192 37.7737 18.2144 37.8342 18.2368C37.8837 18.2537 37.9331 18.2761 37.9826 18.2929C38.0321 18.3098 38.0815 18.3266 38.1255 18.349C38.175 18.3659 38.2244 18.3883 38.2739 18.4051C38.3179 18.422 38.3674 18.4388 38.4113 18.4612C38.4608 18.4837 38.5103 18.5005 38.5597 18.5229C38.5707 18.5285 38.5817 18.5342 38.5927 18.5342C38.1805 20.0936 37.6363 21.7092 36.9657 23.336C36.4765 24.5196 35.9214 25.7145 35.3113 26.8925C35.0365 27.4198 34.7616 27.9359 34.4868 28.4183C34.2065 28.9176 33.9097 29.4168 33.6074 29.9105C32.9148 31.0324 32.1783 32.1263 31.4197 33.1472C30.3754 34.5496 29.2761 35.8399 28.1548 36.9842C27.5887 36.5298 27.0115 36.025 26.4454 35.4752C26.9566 34.9535 27.4677 34.3982 27.9679 33.8148Z" fill="#61D0D7"/>
<path d="M12.7362 32.4408C12.7362 32.4352 12.7362 32.4296 12.7362 32.424C12.7692 32.1042 12.8132 31.7677 12.8681 31.403C13.0055 30.4999 13.1979 29.5519 13.4398 28.587C13.808 27.1453 14.2917 25.6644 14.8799 24.161C15.2921 25.1203 15.7483 26.0851 16.2375 27.0388C15.9792 27.8297 15.7538 28.6151 15.5614 29.3836C15.3196 30.3653 15.1382 31.3245 15.0228 32.2333C15.0008 32.4072 14.9843 32.5474 14.9733 32.6708C14.594 36.2329 15.2701 38.8021 16.8256 39.7165C17.2763 39.9858 17.815 40.1148 18.4141 40.1148C19.8762 40.1148 21.7285 39.3351 23.7348 37.8317C23.7897 37.7924 23.8392 37.7531 23.8942 37.7139C24.4603 38.2748 25.0319 38.7965 25.6036 39.279C25.4222 39.4248 25.2408 39.5594 25.0704 39.6885C22.6794 41.4779 20.3764 42.4204 18.4031 42.4204C17.4083 42.4204 16.5013 42.1791 15.6988 41.7079C13.3078 40.3055 12.2525 37.0127 12.7362 32.4408Z" fill="#61D0D7"/>
<path d="M46.7313 23.4376C46.7313 26.2705 44.4558 28.8509 40.3334 30.7077C40.141 30.7975 39.9321 30.8816 39.7177 30.9714C39.5968 30.2309 39.4374 29.4624 39.245 28.677C39.3055 28.649 39.366 28.6265 39.4209 28.5985C42.6364 27.1512 44.4777 25.272 44.4777 23.432C44.4777 21.5921 42.6364 19.7128 39.4209 18.2712C39.278 18.2095 39.1406 18.1478 39.0197 18.0973C38.1897 17.7439 37.2828 17.4241 36.3319 17.1492C35.5844 16.9305 34.8039 16.7397 34.0014 16.5715C33.4407 15.6627 32.8471 14.7764 32.237 13.9293C33.809 14.1593 35.3095 14.4735 36.7111 14.8717C36.7166 14.8717 36.7221 14.8717 36.7276 14.8773C37.6566 15.141 38.5525 15.4439 39.3935 15.7749C39.7232 15.9039 40.0366 16.0385 40.3279 16.1676C44.4558 18.0243 46.7313 20.6048 46.7313 23.4376Z" fill="#61D0D7"/>
</g>
<defs>
<clipPath id="clip0_483_594">
<rect width="50.1283" height="46.8965" fill="white" transform="matrix(-1 -8.92216e-08 -8.56602e-08 1 51.0848 0)"/>
</clipPath>
</defs>
</svg>
